<svg width="28" height="32" viewBox="0 0 28 32" fill="black" xmlns="http://www.w3.org/2000/svg">
<path d="M13.772 15.4145C15.8896 15.4145 17.7234 14.655 19.2217 13.1564C20.72 11.6582 21.4795 9.82491 21.4795 7.707C21.4795 5.58982 20.72 3.75633 19.2214 2.25756C17.7229 0.759519 15.8894 0 13.772 0C11.6541 0 9.8208 0.759519 8.32251 2.2578C6.82422 3.75609 6.06445 5.58958 6.06445 7.707C6.06445 9.82491 6.82422 11.6584 8.32275 13.1567C9.82129 14.6547 11.6548 15.4145 13.772 15.4145Z" fill="white"/>
<path d="M27.2581 24.6063C27.2148 23.9828 27.1274 23.3026 26.9988 22.5844C26.8689 21.8608 26.7017 21.1767 26.5015 20.5514C26.2947 19.9052 26.0134 19.267 25.6658 18.6554C25.3049 18.0207 24.8811 17.4679 24.4055 17.0131C23.9082 16.5373 23.2993 16.1547 22.5952 15.8757C21.8936 15.5981 21.116 15.4575 20.2842 15.4575C19.9575 15.4575 19.6416 15.5915 19.0315 15.9887C18.656 16.2336 18.2168 16.5168 17.7266 16.83C17.3074 17.0971 16.7395 17.3473 16.0381 17.5739C15.3538 17.7953 14.6589 17.9076 13.9731 17.9076C13.2874 17.9076 12.5928 17.7953 11.9077 17.5739C11.207 17.3476 10.6392 17.0973 10.2205 16.8303C9.73486 16.52 9.29541 16.2368 8.91431 15.9885C8.30493 15.5912 7.98877 15.4572 7.66211 15.4572C6.83008 15.4572 6.05273 15.5981 5.35132 15.8759C4.64771 16.1545 4.03857 16.537 3.54077 17.0134C3.06543 17.4684 2.64136 18.0209 2.28101 18.6554C1.93359 19.267 1.65234 19.905 1.44531 20.5517C1.24536 21.1769 1.07812 21.8608 0.948242 22.5844C0.81958 23.3017 0.732178 23.9821 0.688965 24.6071C0.646484 25.2194 0.625 25.8549 0.625 26.4967C0.625 28.1671 1.15601 29.5194 2.20312 30.5167C3.2373 31.5009 4.60571 32.0001 6.26978 32.0001H21.678C23.342 32.0001 24.71 31.5011 25.7444 30.5167C26.7917 29.5201 27.3228 28.1676 27.3228 26.4965C27.3225 25.8517 27.3008 25.2157 27.2581 24.6063Z" fill="white"/>
</svg>
